<?xml version="1.0" encoding="utf-8"?>
<!-- Generator: Adobe Illustrator 23.0.1, SVG Export Plug-In . SVG Version: 6.00 Build 0)  -->
<svg version="1.1" id="Capa_1" xmlns="http://www.w3.org/2000/svg" xmlns:xlink="http://www.w3.org/1999/xlink" x="0px" y="0px"
	 viewBox="0 0 171 54.8" style="enable-background:new 0 0 171 54.8;" xml:space="preserve">
<style type="text/css">
	.st0{enable-background:new    ;}
	.st1{fill:#00307A;}
	.st2{fill:#00CDFF;}
</style>
<g transform="translate(-214.606 -23.66)">
	<g class="st0">
		<path class="st1" d="M216.8,72c0.8,0,1.4,0.1,1.8,0.4c0.4,0.3,0.6,0.7,0.6,1.3c0,0.3-0.1,0.6-0.2,0.8s-0.3,0.4-0.5,0.6
			s-0.5,0.2-0.8,0.3s-0.7,0.1-1,0.1h-0.5v1.9h-1v-5.3c0.2-0.1,0.5-0.1,0.8-0.1C216.3,72,216.5,72,216.8,72z M216.8,72.8
			c-0.2,0-0.5,0-0.6,0v1.8h0.5c0.5,0,0.8-0.1,1.1-0.2c0.3-0.1,0.4-0.4,0.4-0.8c0-0.2,0-0.3-0.1-0.4c-0.1-0.1-0.2-0.2-0.3-0.3
			s-0.3-0.1-0.4-0.1C217.2,72.9,217,72.8,216.8,72.8z"/>
		<path class="st1" d="M223.5,76.6v0.8h-3.4V72h1v4.5H223.5z"/>
		<path class="st1" d="M228,77.4c-0.1-0.2-0.1-0.4-0.2-0.6c-0.1-0.2-0.2-0.4-0.2-0.6h-2.3c-0.1,0.2-0.1,0.4-0.2,0.6
			c-0.1,0.2-0.1,0.4-0.2,0.6h-1c0.2-0.6,0.4-1.1,0.6-1.6c0.2-0.5,0.4-0.9,0.5-1.4c0.2-0.4,0.3-0.8,0.5-1.2s0.3-0.8,0.5-1.2h0.9
			c0.2,0.4,0.4,0.8,0.5,1.2s0.3,0.8,0.5,1.2c0.2,0.4,0.4,0.9,0.5,1.4c0.2,0.5,0.4,1,0.6,1.6H228z M226.4,73.1
			c-0.1,0.3-0.3,0.6-0.4,1c-0.2,0.4-0.3,0.8-0.5,1.3h1.8c-0.2-0.5-0.3-0.9-0.5-1.3C226.7,73.7,226.5,73.3,226.4,73.1z"/>
		<path class="st1" d="M233.1,72v0.8h-1.7v4.5h-1v-4.5h-1.7V72H233.1z"/>
		<path class="st1" d="M237,77.4c-0.1-0.2-0.1-0.4-0.2-0.6c-0.1-0.2-0.2-0.4-0.2-0.6h-2.3c-0.1,0.2-0.1,0.4-0.2,0.6
			c-0.1,0.2-0.1,0.4-0.2,0.6h-1c0.2-0.6,0.4-1.1,0.6-1.6c0.2-0.5,0.4-0.9,0.5-1.4c0.2-0.4,0.3-0.8,0.5-1.2s0.3-0.8,0.5-1.2h0.9
			c0.2,0.4,0.4,0.8,0.5,1.2s0.3,0.8,0.5,1.2c0.2,0.4,0.4,0.9,0.5,1.4c0.2,0.5,0.4,1,0.6,1.6H237z M235.4,73.1
			c-0.1,0.3-0.3,0.6-0.4,1c-0.2,0.4-0.3,0.8-0.5,1.3h1.8c-0.2-0.5-0.3-0.9-0.5-1.3C235.6,73.7,235.5,73.3,235.4,73.1z"/>
		<path class="st1" d="M238.7,77.4V72h3.4v0.8h-2.4v1.4h2.2v0.8h-2.2v2.3H238.7z"/>
		<path class="st1" d="M247.9,74.7c0,0.5-0.1,0.9-0.2,1.2s-0.3,0.6-0.6,0.9c-0.2,0.2-0.5,0.4-0.8,0.5c-0.3,0.1-0.7,0.2-1,0.2
			c-0.4,0-0.7-0.1-1-0.2s-0.6-0.3-0.8-0.5c-0.2-0.2-0.4-0.5-0.6-0.9c-0.1-0.4-0.2-0.8-0.2-1.2s0.1-0.9,0.2-1.2
			c0.1-0.3,0.3-0.6,0.6-0.9c0.2-0.2,0.5-0.4,0.8-0.5c0.3-0.1,0.6-0.2,1-0.2s0.7,0.1,1,0.2c0.3,0.1,0.6,0.3,0.8,0.5s0.4,0.5,0.6,0.9
			C247.8,73.9,247.9,74.3,247.9,74.7z M243.7,74.7c0,0.3,0,0.6,0.1,0.8c0.1,0.2,0.2,0.4,0.3,0.6c0.1,0.2,0.3,0.3,0.5,0.4
			c0.2,0.1,0.4,0.1,0.7,0.1c0.2,0,0.5,0,0.7-0.1c0.2-0.1,0.4-0.2,0.5-0.4c0.1-0.2,0.2-0.4,0.3-0.6c0.1-0.2,0.1-0.5,0.1-0.8
			s0-0.6-0.1-0.8c-0.1-0.2-0.2-0.4-0.3-0.6c-0.1-0.2-0.3-0.3-0.5-0.4c-0.2-0.1-0.4-0.1-0.7-0.1c-0.2,0-0.5,0-0.7,0.1
			c-0.2,0.1-0.4,0.2-0.5,0.4c-0.1,0.2-0.2,0.4-0.3,0.6C243.7,74.2,243.7,74.4,243.7,74.7z"/>
		<path class="st1" d="M250.4,72c0.8,0,1.4,0.1,1.8,0.4c0.4,0.3,0.6,0.7,0.6,1.3c0,0.7-0.4,1.2-1.1,1.5c0.1,0.1,0.2,0.3,0.3,0.4
			c0.1,0.2,0.3,0.4,0.4,0.6c0.1,0.2,0.3,0.4,0.4,0.6c0.1,0.2,0.2,0.4,0.3,0.6h-1.1c-0.1-0.2-0.2-0.4-0.3-0.6s-0.2-0.4-0.3-0.6
			s-0.2-0.3-0.3-0.5c-0.1-0.2-0.2-0.3-0.3-0.4c-0.1,0-0.1,0-0.2,0c-0.1,0-0.1,0-0.1,0h-0.5v2h-1v-5.3c0.2-0.1,0.5-0.1,0.8-0.1
			C250,72,250.2,72,250.4,72z M250.5,72.8c-0.2,0-0.4,0-0.6,0v1.7h0.4c0.2,0,0.4,0,0.6,0c0.2,0,0.3-0.1,0.5-0.1
			c0.1-0.1,0.2-0.2,0.3-0.3c0.1-0.1,0.1-0.3,0.1-0.4c0-0.2,0-0.3-0.1-0.4c-0.1-0.1-0.2-0.2-0.3-0.3s-0.3-0.1-0.4-0.1
			C250.9,72.9,250.7,72.8,250.5,72.8z"/>
		<path class="st1" d="M255.1,72c0.1,0.2,0.2,0.4,0.4,0.7c0.1,0.3,0.3,0.6,0.4,0.9c0.1,0.3,0.3,0.6,0.4,1c0.1,0.3,0.3,0.6,0.4,0.9
			c0.1-0.3,0.2-0.6,0.4-0.9c0.1-0.3,0.3-0.6,0.4-1c0.1-0.3,0.3-0.6,0.4-0.9c0.1-0.3,0.3-0.5,0.4-0.7h0.9c0,0.4,0.1,0.8,0.1,1.3
			c0,0.4,0.1,0.9,0.1,1.4c0,0.5,0.1,0.9,0.1,1.4c0,0.5,0.1,0.9,0.1,1.4h-1c0-0.6,0-1.3-0.1-1.9c0-0.7-0.1-1.3-0.1-1.9
			c-0.1,0.1-0.1,0.3-0.2,0.4s-0.2,0.3-0.2,0.5c-0.1,0.2-0.2,0.4-0.3,0.6s-0.2,0.4-0.3,0.6s-0.2,0.4-0.2,0.5
			c-0.1,0.2-0.1,0.3-0.2,0.4h-0.7c-0.1-0.1-0.1-0.3-0.2-0.4c-0.1-0.2-0.2-0.4-0.2-0.5c-0.1-0.2-0.2-0.4-0.3-0.6s-0.2-0.4-0.3-0.6
			c-0.1-0.2-0.2-0.4-0.2-0.5c-0.1-0.2-0.1-0.3-0.2-0.4c-0.1,0.6-0.1,1.3-0.1,1.9c0,0.7-0.1,1.3-0.1,1.9h-1c0-0.4,0-0.9,0.1-1.4
			c0-0.5,0.1-0.9,0.1-1.4c0-0.5,0.1-0.9,0.1-1.4c0-0.4,0.1-0.8,0.1-1.2H255.1z"/>
		<path class="st1" d="M264.4,77.4c-0.1-0.2-0.1-0.4-0.2-0.6c-0.1-0.2-0.2-0.4-0.2-0.6h-2.3c-0.1,0.2-0.1,0.4-0.2,0.6
			c-0.1,0.2-0.1,0.4-0.2,0.6h-1c0.2-0.6,0.4-1.1,0.6-1.6c0.2-0.5,0.4-0.9,0.5-1.4c0.2-0.4,0.3-0.8,0.5-1.2s0.3-0.8,0.5-1.2h0.9
			c0.2,0.4,0.4,0.8,0.5,1.2s0.3,0.8,0.5,1.2c0.2,0.4,0.4,0.9,0.5,1.4c0.2,0.5,0.4,1,0.6,1.6H264.4z M262.8,73.1
			c-0.1,0.3-0.3,0.6-0.4,1c-0.2,0.4-0.3,0.8-0.5,1.3h1.8c-0.2-0.5-0.3-0.9-0.5-1.3C263.1,73.7,262.9,73.3,262.8,73.1z"/>
		<path class="st1" d="M272.5,74.7c0,0.5-0.1,0.9-0.2,1.2s-0.4,0.6-0.6,0.9c-0.3,0.2-0.6,0.4-1,0.5c-0.4,0.1-0.8,0.2-1.2,0.2
			c-0.2,0-0.5,0-0.7,0c-0.3,0-0.5-0.1-0.8-0.1v-5.2c0.2-0.1,0.5-0.1,0.8-0.1s0.5,0,0.7,0c0.5,0,0.9,0.1,1.2,0.2
			c0.4,0.1,0.7,0.3,1,0.5c0.3,0.2,0.5,0.5,0.6,0.9C272.4,73.8,272.5,74.3,272.5,74.7z M268.9,76.6c0.1,0,0.1,0,0.2,0
			c0.1,0,0.2,0,0.4,0c0.7,0,1.1-0.2,1.5-0.5c0.3-0.3,0.5-0.8,0.5-1.4c0-0.6-0.2-1.1-0.5-1.4c-0.3-0.3-0.8-0.5-1.5-0.5
			c-0.3,0-0.5,0-0.6,0V76.6z"/>
		<path class="st1" d="M273.6,72h1v5.4h-1V72z"/>
		<path class="st1" d="M278.4,72.8c-0.6,0-1,0.2-1.3,0.5c-0.3,0.3-0.4,0.8-0.4,1.4c0,0.3,0,0.6,0.1,0.8s0.2,0.4,0.3,0.6
			c0.1,0.2,0.3,0.3,0.5,0.4c0.2,0.1,0.4,0.1,0.7,0.1c0.2,0,0.3,0,0.4,0s0.2,0,0.3-0.1v-1.9h1v2.6c-0.1,0.1-0.4,0.1-0.7,0.2
			s-0.7,0.1-1.1,0.1c-0.4,0-0.7-0.1-1.1-0.2c-0.3-0.1-0.6-0.3-0.8-0.5s-0.4-0.5-0.5-0.9c-0.1-0.3-0.2-0.7-0.2-1.2s0.1-0.8,0.2-1.2
			c0.1-0.3,0.3-0.6,0.6-0.9c0.2-0.2,0.5-0.4,0.8-0.5c0.3-0.1,0.7-0.2,1-0.2c0.2,0,0.5,0,0.7,0c0.2,0,0.4,0.1,0.5,0.1
			c0.1,0,0.3,0.1,0.3,0.1c0.1,0,0.2,0.1,0.2,0.1l-0.3,0.8c-0.2-0.1-0.3-0.2-0.6-0.2C278.9,72.8,278.6,72.8,278.4,72.8z"/>
		<path class="st1" d="M281.2,72h1v5.4h-1V72z"/>
		<path class="st1" d="M287.2,72v0.8h-1.7v4.5h-1v-4.5h-1.7V72H287.2z"/>
		<path class="st1" d="M291.1,77.4c-0.1-0.2-0.1-0.4-0.2-0.6c-0.1-0.2-0.2-0.4-0.2-0.6h-2.3c-0.1,0.2-0.1,0.4-0.2,0.6
			s-0.1,0.4-0.2,0.6h-1c0.2-0.6,0.4-1.1,0.6-1.6c0.2-0.5,0.4-0.9,0.5-1.4c0.2-0.4,0.3-0.8,0.5-1.2s0.3-0.8,0.5-1.2h0.9
			c0.2,0.4,0.4,0.8,0.5,1.2s0.3,0.8,0.5,1.2c0.2,0.4,0.4,0.9,0.5,1.4c0.2,0.5,0.4,1,0.6,1.6H291.1z M289.5,73.1
			c-0.1,0.3-0.3,0.6-0.4,1c-0.2,0.4-0.3,0.8-0.5,1.3h1.8c-0.2-0.5-0.3-0.9-0.5-1.3C289.7,73.7,289.6,73.3,289.5,73.1z"/>
		<path class="st1" d="M296.2,76.6v0.8h-3.4V72h1v4.5H296.2z"/>
		<path class="st1" d="M303.3,74.7c0,0.5-0.1,0.9-0.2,1.2c-0.1,0.3-0.4,0.6-0.6,0.9s-0.6,0.4-1,0.5s-0.8,0.2-1.2,0.2
			c-0.2,0-0.5,0-0.7,0c-0.3,0-0.5-0.1-0.8-0.1v-5.2c0.2-0.1,0.5-0.1,0.8-0.1c0.3,0,0.5,0,0.7,0c0.5,0,0.9,0.1,1.2,0.2
			c0.4,0.1,0.7,0.3,1,0.5s0.5,0.5,0.6,0.9C303.3,73.8,303.3,74.3,303.3,74.7z M299.7,76.6c0.1,0,0.1,0,0.2,0c0.1,0,0.2,0,0.4,0
			c0.7,0,1.1-0.2,1.5-0.5c0.3-0.3,0.5-0.8,0.5-1.4c0-0.6-0.2-1.1-0.5-1.4c-0.3-0.3-0.8-0.5-1.5-0.5c-0.3,0-0.5,0-0.6,0V76.6z"/>
		<path class="st1" d="M304.4,77.4V72h3.5v0.8h-2.5v1.3h2.2V75h-2.2v1.6h2.7v0.8H304.4z"/>
		<path class="st1" d="M314.1,72h1v5.4h-1V75h-2.3v2.4h-1V72h1v2.2h2.3V72z"/>
		<path class="st1" d="M316.4,72h1v5.4h-1V72z"/>
		<path class="st1" d="M319.9,76.7c0.4,0,0.6-0.1,0.8-0.2c0.2-0.1,0.2-0.3,0.2-0.5c0-0.1,0-0.2-0.1-0.3c-0.1-0.1-0.1-0.2-0.2-0.3
			c-0.1-0.1-0.2-0.1-0.4-0.2c-0.1-0.1-0.3-0.1-0.5-0.2c-0.2-0.1-0.4-0.1-0.5-0.2c-0.2-0.1-0.3-0.2-0.5-0.3s-0.2-0.3-0.3-0.4
			c-0.1-0.2-0.1-0.4-0.1-0.6c0-0.5,0.2-0.9,0.5-1.1c0.3-0.3,0.8-0.4,1.4-0.4c0.3,0,0.6,0,0.9,0.1s0.5,0.2,0.6,0.2l-0.3,0.8
			c-0.2-0.1-0.4-0.2-0.6-0.2s-0.4-0.1-0.6-0.1c-0.3,0-0.5,0.1-0.6,0.2c-0.1,0.1-0.2,0.3-0.2,0.5c0,0.1,0,0.2,0.1,0.3
			c0,0.1,0.1,0.2,0.2,0.2c0.1,0.1,0.2,0.1,0.3,0.2c0.1,0.1,0.3,0.1,0.4,0.2c0.3,0.1,0.5,0.2,0.7,0.3s0.4,0.2,0.5,0.3
			c0.1,0.1,0.2,0.3,0.3,0.5c0.1,0.2,0.1,0.4,0.1,0.6c0,0.5-0.2,0.9-0.5,1.1c-0.3,0.3-0.8,0.4-1.5,0.4c-0.2,0-0.4,0-0.6,0
			c-0.2,0-0.3-0.1-0.5-0.1c-0.1,0-0.3-0.1-0.4-0.1c-0.1,0-0.2-0.1-0.2-0.1l0.3-0.8c0.1,0.1,0.3,0.2,0.6,0.2
			C319.3,76.7,319.6,76.7,319.9,76.7z"/>
		<path class="st1" d="M326.6,72v0.8h-1.7v4.5h-1v-4.5h-1.7V72H326.6z"/>
		<path class="st1" d="M332.1,74.7c0,0.5-0.1,0.9-0.2,1.2c-0.1,0.4-0.3,0.6-0.6,0.9c-0.2,0.2-0.5,0.4-0.8,0.5
			c-0.3,0.1-0.7,0.2-1,0.2s-0.7-0.1-1-0.2c-0.3-0.1-0.6-0.3-0.8-0.5c-0.2-0.2-0.4-0.5-0.6-0.9c-0.1-0.4-0.2-0.8-0.2-1.2
			s0.1-0.9,0.2-1.2c0.1-0.3,0.3-0.6,0.6-0.9c0.2-0.2,0.5-0.4,0.8-0.5c0.3-0.1,0.7-0.2,1-0.2s0.7,0.1,1,0.2s0.6,0.3,0.8,0.5
			c0.2,0.2,0.4,0.5,0.6,0.9C332.1,73.9,332.1,74.3,332.1,74.7z M327.9,74.7c0,0.3,0,0.6,0.1,0.8s0.2,0.4,0.3,0.6
			c0.1,0.2,0.3,0.3,0.5,0.4c0.2,0.1,0.4,0.1,0.7,0.1c0.2,0,0.5,0,0.7-0.1c0.2-0.1,0.4-0.2,0.5-0.4c0.1-0.2,0.2-0.4,0.3-0.6
			c0.1-0.2,0.1-0.5,0.1-0.8s0-0.6-0.1-0.8c-0.1-0.2-0.2-0.4-0.3-0.6c-0.1-0.2-0.3-0.3-0.5-0.4c-0.2-0.1-0.4-0.1-0.7-0.1
			c-0.2,0-0.5,0-0.7,0.1c-0.2,0.1-0.4,0.2-0.5,0.4c-0.1,0.2-0.2,0.4-0.3,0.6S327.9,74.4,327.9,74.7z"/>
		<path class="st1" d="M334.7,72c0.8,0,1.4,0.1,1.8,0.4c0.4,0.3,0.6,0.7,0.6,1.3c0,0.7-0.4,1.2-1.1,1.5c0.1,0.1,0.2,0.3,0.3,0.4
			c0.1,0.2,0.3,0.4,0.4,0.6c0.1,0.2,0.3,0.4,0.4,0.6s0.2,0.4,0.3,0.6h-1.1c-0.1-0.2-0.2-0.4-0.3-0.6s-0.2-0.4-0.3-0.6
			c-0.1-0.2-0.2-0.3-0.3-0.5c-0.1-0.2-0.2-0.3-0.3-0.4c-0.1,0-0.1,0-0.2,0s-0.1,0-0.1,0h-0.5v2h-1v-5.3c0.2-0.1,0.5-0.1,0.8-0.1
			C334.3,72,334.5,72,334.7,72z M334.8,72.8c-0.2,0-0.4,0-0.6,0v1.7h0.4c0.2,0,0.4,0,0.6,0s0.3-0.1,0.5-0.1c0.1-0.1,0.2-0.2,0.3-0.3
			c0.1-0.1,0.1-0.3,0.1-0.4c0-0.2,0-0.3-0.1-0.4c-0.1-0.1-0.2-0.2-0.3-0.3c-0.1-0.1-0.3-0.1-0.4-0.1C335.1,72.9,335,72.8,334.8,72.8
			z"/>
		<path class="st1" d="M338.2,72h1v5.4h-1V72z"/>
		<path class="st1" d="M344,77.4c-0.1-0.2-0.1-0.4-0.2-0.6c-0.1-0.2-0.2-0.4-0.2-0.6h-2.3c-0.1,0.2-0.1,0.4-0.2,0.6
			s-0.1,0.4-0.2,0.6h-1c0.2-0.6,0.4-1.1,0.6-1.6c0.2-0.5,0.4-0.9,0.5-1.4c0.2-0.4,0.3-0.8,0.5-1.2s0.3-0.8,0.5-1.2h0.9
			c0.2,0.4,0.4,0.8,0.5,1.2s0.3,0.8,0.5,1.2c0.2,0.4,0.4,0.9,0.5,1.4c0.2,0.5,0.4,1,0.6,1.6H344z M342.5,73.1
			c-0.1,0.3-0.3,0.6-0.4,1c-0.2,0.4-0.3,0.8-0.5,1.3h1.8c-0.2-0.5-0.3-0.9-0.5-1.3C342.7,73.7,342.6,73.3,342.5,73.1z"/>
		<path class="st1" d="M347.2,76.7c0.4,0,0.6-0.1,0.8-0.2c0.2-0.1,0.2-0.3,0.2-0.5c0-0.1,0-0.2-0.1-0.3c-0.1-0.1-0.1-0.2-0.2-0.3
			c-0.1-0.1-0.2-0.1-0.4-0.2c-0.1-0.1-0.3-0.1-0.5-0.2c-0.2-0.1-0.4-0.1-0.5-0.2c-0.2-0.1-0.3-0.2-0.5-0.3s-0.2-0.3-0.3-0.4
			c-0.1-0.2-0.1-0.4-0.1-0.6c0-0.5,0.2-0.9,0.5-1.1c0.3-0.3,0.8-0.4,1.4-0.4c0.3,0,0.6,0,0.9,0.1s0.5,0.2,0.6,0.2l-0.3,0.8
			c-0.2-0.1-0.4-0.2-0.6-0.2s-0.4-0.1-0.6-0.1c-0.3,0-0.5,0.1-0.6,0.2c-0.1,0.1-0.2,0.3-0.2,0.5c0,0.1,0,0.2,0.1,0.3
			c0,0.1,0.1,0.2,0.2,0.2c0.1,0.1,0.2,0.1,0.3,0.2c0.1,0.1,0.3,0.1,0.4,0.2c0.3,0.1,0.5,0.2,0.7,0.3s0.4,0.2,0.5,0.3
			c0.1,0.1,0.2,0.3,0.3,0.5c0.1,0.2,0.1,0.4,0.1,0.6c0,0.5-0.2,0.9-0.5,1.1c-0.3,0.3-0.8,0.4-1.5,0.4c-0.2,0-0.4,0-0.6,0
			c-0.2,0-0.3-0.1-0.5-0.1c-0.1,0-0.3-0.1-0.4-0.1c-0.1,0-0.2-0.1-0.2-0.1l0.3-0.8c0.1,0.1,0.3,0.2,0.6,0.2
			C346.6,76.7,346.9,76.7,347.2,76.7z"/>
		<path class="st1" d="M354.3,77.5c-0.4,0-0.8-0.1-1.1-0.2c-0.3-0.1-0.6-0.3-0.8-0.5s-0.4-0.5-0.5-0.9c-0.1-0.3-0.2-0.7-0.2-1.2
			s0.1-0.8,0.2-1.2c0.1-0.3,0.3-0.6,0.6-0.9s0.5-0.4,0.8-0.5c0.3-0.1,0.7-0.2,1-0.2c0.2,0,0.4,0,0.6,0c0.2,0,0.3,0.1,0.5,0.1
			c0.1,0,0.2,0.1,0.3,0.1c0.1,0,0.1,0.1,0.2,0.1l-0.3,0.8c-0.1-0.1-0.3-0.2-0.5-0.2c-0.2-0.1-0.5-0.1-0.8-0.1c-0.2,0-0.5,0-0.7,0.1
			c-0.2,0.1-0.4,0.2-0.5,0.4c-0.1,0.2-0.3,0.4-0.3,0.6c-0.1,0.2-0.1,0.5-0.1,0.8c0,0.3,0,0.5,0.1,0.8c0.1,0.2,0.2,0.4,0.3,0.6
			s0.3,0.3,0.5,0.4c0.2,0.1,0.5,0.1,0.7,0.1c0.3,0,0.6,0,0.8-0.1c0.2-0.1,0.4-0.1,0.5-0.2l0.3,0.8c-0.1,0-0.1,0.1-0.3,0.1
			c-0.1,0-0.2,0.1-0.4,0.1c-0.1,0-0.3,0.1-0.5,0.1C354.7,77.5,354.5,77.5,354.3,77.5z"/>
		<path class="st1" d="M360.3,76.6v0.8h-3.4V72h1v4.5H360.3z"/>
		<path class="st1" d="M361,72h1v5.4h-1V72z M362.8,70.4l-1.3,1.2l-0.5-0.4l1.1-1.4L362.8,70.4z"/>
		<path class="st1" d="M366.9,77.4c-0.2-0.3-0.4-0.6-0.6-1s-0.4-0.7-0.7-1c-0.2-0.3-0.5-0.7-0.7-1c-0.2-0.3-0.5-0.6-0.7-0.9v3.9h-1
			V72h0.8c0.2,0.2,0.4,0.5,0.7,0.8s0.5,0.6,0.7,0.9c0.2,0.3,0.5,0.6,0.7,1c0.2,0.3,0.4,0.6,0.6,0.9V72h1v5.4H366.9z"/>
		<path class="st1" d="M369,72h1v5.4h-1V72z"/>
		<path class="st1" d="M373.7,77.5c-0.4,0-0.8-0.1-1.1-0.2c-0.3-0.1-0.6-0.3-0.8-0.5s-0.4-0.5-0.5-0.9c-0.1-0.3-0.2-0.7-0.2-1.2
			s0.1-0.8,0.2-1.2c0.1-0.3,0.3-0.6,0.6-0.9s0.5-0.4,0.8-0.5c0.3-0.1,0.7-0.2,1-0.2c0.2,0,0.4,0,0.6,0c0.2,0,0.3,0.1,0.5,0.1
			c0.1,0,0.2,0.1,0.3,0.1c0.1,0,0.1,0.1,0.2,0.1l-0.3,0.8c-0.1-0.1-0.3-0.2-0.5-0.2c-0.2-0.1-0.5-0.1-0.8-0.1c-0.2,0-0.5,0-0.7,0.1
			c-0.2,0.1-0.4,0.2-0.5,0.4c-0.1,0.2-0.3,0.4-0.3,0.6c-0.1,0.2-0.1,0.5-0.1,0.8c0,0.3,0,0.5,0.1,0.8c0.1,0.2,0.2,0.4,0.3,0.6
			s0.3,0.3,0.5,0.4c0.2,0.1,0.5,0.1,0.7,0.1c0.3,0,0.6,0,0.8-0.1c0.2-0.1,0.4-0.1,0.5-0.2l0.3,0.8c-0.1,0-0.1,0.1-0.3,0.1
			c-0.1,0-0.2,0.1-0.4,0.1c-0.1,0-0.3,0.1-0.5,0.1C374.1,77.5,373.9,77.5,373.7,77.5z"/>
		<path class="st1" d="M380,77.4c-0.1-0.2-0.1-0.4-0.2-0.6c-0.1-0.2-0.2-0.4-0.2-0.6h-2.3c-0.1,0.2-0.1,0.4-0.2,0.6
			s-0.1,0.4-0.2,0.6h-1c0.2-0.6,0.4-1.1,0.6-1.6c0.2-0.5,0.4-0.9,0.5-1.4c0.2-0.4,0.3-0.8,0.5-1.2s0.3-0.8,0.5-1.2h0.9
			c0.2,0.4,0.4,0.8,0.5,1.2s0.3,0.8,0.5,1.2c0.2,0.4,0.4,0.9,0.5,1.4c0.2,0.5,0.4,1,0.6,1.6H380z M378.4,73.1
			c-0.1,0.3-0.3,0.6-0.4,1c-0.2,0.4-0.3,0.8-0.5,1.3h1.8c-0.2-0.5-0.3-0.9-0.5-1.3C378.6,73.7,378.5,73.3,378.4,73.1z"/>
		<path class="st1" d="M383.1,76.7c0.4,0,0.6-0.1,0.8-0.2c0.2-0.1,0.2-0.3,0.2-0.5c0-0.1,0-0.2-0.1-0.3c-0.1-0.1-0.1-0.2-0.2-0.3
			c-0.1-0.1-0.2-0.1-0.4-0.2c-0.1-0.1-0.3-0.1-0.5-0.2c-0.2-0.1-0.4-0.1-0.5-0.2c-0.2-0.1-0.3-0.2-0.5-0.3s-0.2-0.3-0.3-0.4
			c-0.1-0.2-0.1-0.4-0.1-0.6c0-0.5,0.2-0.9,0.5-1.1c0.3-0.3,0.8-0.4,1.4-0.4c0.3,0,0.6,0,0.9,0.1s0.5,0.2,0.6,0.2l-0.3,0.8
			c-0.2-0.1-0.4-0.2-0.6-0.2s-0.4-0.1-0.6-0.1c-0.3,0-0.5,0.1-0.6,0.2c-0.1,0.1-0.2,0.3-0.2,0.5c0,0.1,0,0.2,0.1,0.3
			c0,0.1,0.1,0.2,0.2,0.2c0.1,0.1,0.2,0.1,0.3,0.2c0.1,0.1,0.3,0.1,0.4,0.2c0.3,0.1,0.5,0.2,0.7,0.3s0.4,0.2,0.5,0.3
			c0.1,0.1,0.2,0.3,0.3,0.5c0.1,0.2,0.1,0.4,0.1,0.6c0,0.5-0.2,0.9-0.5,1.1c-0.3,0.3-0.8,0.4-1.5,0.4c-0.2,0-0.4,0-0.6,0
			c-0.2,0-0.3-0.1-0.5-0.1c-0.1,0-0.3-0.1-0.4-0.1c-0.1,0-0.2-0.1-0.2-0.1l0.3-0.8c0.1,0.1,0.3,0.2,0.6,0.2
			C382.5,76.7,382.8,76.7,383.1,76.7z"/>
	</g>
	<path class="st2" d="M267.3,48.1h-8.4v-8.5h-5v22.1h5v-9.4h8.4v9.4h5V39.7h-5L267.3,48.1z"/>
	<path class="st2" d="M292.5,57c-0.4,0.2-0.8,0.3-1.2,0.4c-0.5,0.1-1,0.2-1.5,0.3c-0.6,0.1-1.3,0.1-1.9,0.1c-1,0-2-0.2-2.9-0.6
		c-0.8-0.3-1.4-0.9-2-1.5c-0.5-0.7-0.9-1.5-1.1-2.3c-0.2-0.9-0.3-1.9-0.3-2.9c0-1.1,0.1-2.2,0.5-3.3c0.3-0.8,0.8-1.6,1.4-2.2
		c0.5-0.6,1.2-1,1.9-1.2c0.7-0.3,1.5-0.4,2.2-0.4c1,0,2.1,0.1,3.1,0.4c0.8,0.2,1.6,0.5,2.4,0.9l1.4-4c-0.2-0.1-0.4-0.3-0.8-0.4
		c-0.5-0.2-0.9-0.4-1.4-0.6c-0.7-0.2-1.3-0.4-2-0.5c-0.8-0.1-1.7-0.2-2.6-0.2c-1.5,0-3.1,0.2-4.5,0.8c-1.3,0.5-2.6,1.3-3.6,2.2
		c-1,1-1.8,2.3-2.4,3.6c-0.6,1.6-0.9,3.2-0.9,4.9c0,3.7,0.9,6.5,2.8,8.5c1.9,2,4.6,3,8.2,3c1.5,0,3-0.1,4.4-0.5c1-0.2,2-0.6,3-1.1
		l-1.4-4C293.2,56.7,292.9,56.9,292.5,57z"/>
	<path class="st1" d="M321,50.4c-0.1-1.9-0.3-3.8-0.5-5.6c-0.2-1.8-0.4-3.5-0.6-5.2h-3.6c-0.5,0.8-1,1.8-1.6,3s-1.2,2.4-1.8,3.7
		c-0.6,1.3-1.2,2.6-1.8,3.9s-1.1,2.6-1.6,3.7c-0.5-1.1-1-2.4-1.6-3.7s-1.2-2.6-1.8-3.9c-0.6-1.3-1.2-2.5-1.8-3.7
		c-0.6-1.2-1.1-2.2-1.6-3h-3.7c-0.2,1.5-0.4,3.2-0.6,5s-0.3,3.7-0.5,5.6c-0.1,1.9-0.3,3.9-0.4,5.8c-0.1,2-0.2,3.8-0.3,5.7h4
		c0.1-2.6,0.2-5.2,0.3-7.9s0.3-5.4,0.5-7.9c0.2,0.5,0.5,1,0.8,1.7s0.7,1.4,1,2.2c0.4,0.8,0.7,1.6,1.1,2.5s0.7,1.7,1.1,2.5
		c0.4,0.8,0.7,1.5,1,2.2c0.3,0.7,0.6,1.3,0.8,1.8h3c0.2-0.5,0.5-1.1,0.8-1.8c0.3-0.7,0.6-1.4,1-2.2c0.4-0.8,0.7-1.6,1.1-2.5
		c0.4-0.8,0.7-1.7,1.1-2.5c0.4-0.8,0.7-1.5,1-2.2c0.3-0.7,0.6-1.3,0.8-1.8c0.2,2.6,0.4,5.2,0.5,7.9c0.1,2.7,0.2,5.4,0.3,7.9h4
		c-0.1-1.8-0.2-3.7-0.3-5.6C321.2,54.2,321.1,52.3,321,50.4z"/>
	<path class="st1" d="M338.3,46.8c-1.2-1.3-2.8-2-4.5-2.1c-0.3,0-0.6,0-0.9,0c-1,0-2,0.2-2.9,0.6c-0.9,0.4-1.8,0.9-2.5,1.7
		c-0.8,0.8-1.4,1.7-1.7,2.8c-0.5,1.2-0.7,2.5-0.6,3.9c0,1.2,0.2,2.3,0.5,3.5c0.3,1,0.9,1.9,1.6,2.7c0.7,0.8,1.7,1.4,2.7,1.8
		c1.2,0.5,2.5,0.7,3.8,0.6c0.6,0,1.1,0,1.7-0.1c0.5-0.1,1.1-0.1,1.5-0.2s0.9-0.2,1.3-0.3c0.3-0.1,0.6-0.2,0.9-0.3l-0.2-1.3l-0.3-1.8
		c-0.6,0.2-1.2,0.4-1.8,0.5c-0.8,0.2-1.7,0.3-2.6,0.3c-1.3,0.1-2.6-0.3-3.7-1.1c-0.9-0.8-1.4-1.9-1.4-3.1h11c0-0.2,0-0.5,0.1-0.7
		c0-0.2,0-0.3,0-0.5v-0.2C340.2,50.4,339.6,48.2,338.3,46.8z M329.6,50.4c0.2-0.5,0.4-0.9,0.7-1.2c0.3-0.4,0.7-0.7,1.1-0.9
		c0.5-0.2,1-0.4,1.6-0.3c0.2,0,0.5,0,0.7,0.1c0.3,0,0.5,0.1,0.8,0.2c0.4,0.2,0.8,0.5,1.1,0.8c0.3,0.4,0.5,0.8,0.6,1.2
		c0.1,0.2,0.1,0.4,0.1,0.6c0.1,0.3,0.1,0.6,0.1,0.9h-7.2C329.3,51.3,329.4,50.8,329.6,50.4L329.6,50.4z"/>
	<path class="st1" d="M354.6,37.7v8c-0.5-0.3-1-0.5-1.6-0.6c-0.7-0.2-1.4-0.3-2.1-0.3c-0.5,0-1,0-1.5,0.1c-0.6,0.1-1.1,0.3-1.7,0.5
		c-0.9,0.4-1.7,1-2.3,1.8c-0.7,0.8-1.2,1.7-1.4,2.8c-0.3,1.2-0.5,2.4-0.5,3.6c0,1.2,0.2,2.5,0.6,3.6c0.7,2.1,2.3,3.7,4.4,4.5
		c1.1,0.4,2.3,0.6,3.5,0.6c1.2,0,2.4-0.1,3.6-0.3c1-0.2,1.9-0.4,2.9-0.6V37L354.6,37.7z M349.5,48.5c0.6-0.3,1.2-0.4,1.9-0.4
		c0.6,0,1.2,0.1,1.8,0.3c0.5,0.2,0.9,0.4,1.4,0.7v9.6c-0.3,0.1-0.6,0.1-1.1,0.2c-0.5,0.1-1.1,0.1-1.6,0.1c-1.3,0.1-2.5-0.5-3.4-1.4
		c-0.9-1.1-1.3-2.6-1.2-4c-0.1-1.4,0.3-2.7,1-3.9C348.6,49.1,349,48.7,349.5,48.5z"/>
	<path class="st1" d="M365.3,37.8c-0.6,0-1.2,0.2-1.7,0.6c-0.5,0.5-0.7,1.1-0.7,1.8c0,0.6,0.2,1.3,0.7,1.7c0.5,0.4,1.1,0.7,1.7,0.6
		c0.6,0,1.2-0.2,1.7-0.6c0.5-0.4,0.7-1.1,0.7-1.7c0-0.7-0.2-1.3-0.7-1.8C366.5,38,365.9,37.8,365.3,37.8z"/>
	<rect x="363.4" y="45.1" class="st1" width="3.9" height="16.7"/>
	<path class="st1" d="M383.7,58.2c-0.5,0.2-1.1,0.4-1.7,0.5c-0.6,0.1-1.3,0.2-1.9,0.2c-1.4,0.1-2.8-0.4-3.8-1.4
		c-0.8-1.2-1.2-2.5-1.1-3.9c-0.1-1.4,0.3-2.8,1.2-4c0.9-1,2.1-1.5,3.4-1.4c0.6,0,1.2,0.1,1.8,0.2c0.5,0.1,1,0.3,1.5,0.5l0.8-3.2
		c-1.4-0.6-2.9-0.9-4.5-0.9c-1.2,0-2.4,0.2-3.4,0.7c-1,0.4-1.9,1.1-2.6,1.8c-0.7,0.8-1.3,1.8-1.6,2.8c-0.4,1.1-0.6,2.3-0.6,3.5
		c0,1.2,0.2,2.4,0.5,3.5c0.3,1,0.8,2,1.5,2.8c0.7,0.8,1.6,1.4,2.6,1.8c1.2,0.5,2.4,0.7,3.7,0.7c0.9,0,1.8-0.1,2.7-0.3
		c0.7-0.1,1.3-0.3,1.9-0.6L383.7,58.2z"/>
	<path class="st1" d="M222.6,54.6L222.6,54.6c0.8,0,1.3,0.5,1.3,1.2v0.1c0,0.7-0.5,1.2-1.2,1.2h-0.1c-0.7,0-1.2-0.5-1.2-1.2v-0.1
		C221.4,55.1,221.9,54.6,222.6,54.6z"/>
	<path class="st1" d="M226.7,54.6h9.8c0.6,0,1.1,0.5,1.1,1.1V56c0,0.6-0.5,1.1-1.1,1.1h-9.8c-0.6,0-1.1-0.5-1.1-1.1v-0.4
		C225.7,55.1,226.1,54.6,226.7,54.6z"/>
	<path class="st1" d="M222.6,45.9L222.6,45.9c0.8,0,1.3,0.5,1.3,1.2v0.1c0,0.7-0.5,1.2-1.2,1.2h-0.1c-0.7,0-1.2-0.5-1.2-1.2v-0.1
		C221.4,46.5,221.9,45.9,222.6,45.9z"/>
	<path class="st1" d="M226.7,45.9h9.8c0.6,0,1.1,0.5,1.1,1.1v0.4c0,0.6-0.5,1.1-1.1,1.1h-9.8c-0.6,0-1.1-0.5-1.1-1.1V47
		C225.7,46.4,226.1,45.9,226.7,45.9z"/>
	<path class="st1" d="M222.6,50.2L222.6,50.2c0.8,0,1.3,0.5,1.3,1.2v0.1c0,0.7-0.5,1.2-1.2,1.2h-0.1c-0.7,0-1.2-0.5-1.2-1.2v-0.1
		C221.4,50.8,221.9,50.2,222.6,50.2z"/>
	<path class="st1" d="M226.7,50.2h9.8c0.6,0,1.1,0.5,1.1,1.1v0.4c0,0.6-0.5,1.1-1.1,1.1h-9.8c-0.6,0-1.1-0.5-1.1-1.1v-0.4
		C225.7,50.7,226.1,50.2,226.7,50.2z"/>
	<path class="st1" d="M243.7,34.6c-0.2-0.4-0.4-0.7-0.7-1.1c-0.8-0.9-2-1.5-3.3-1.5h-0.5c0,0,0-0.1,0-0.1c0-0.2-0.1-0.3-0.2-0.4
		c-0.5-0.9-1.5-1.5-2.5-1.5h0c-0.3,0-0.6,0-0.8,0.1c-0.7,0.2-1.4,0.7-1.8,1.4c-0.1,0.2-0.2,0.4-0.2,0.5c-0.1,0.2-0.1,0.4-0.1,0.7
		c0,0.1,0,0.2,0,0.2c0,0.2,0,0.3,0.1,0.5c0,0.2,0.1,0.4,0.2,0.5c0.1,0.1,0.1,0.2,0.2,0.4c0,0,0,0,0.1,0.1c0.5,0.6,1.1,0.9,1.8,1.1
		v2.8c0,1.8-1.3,3.4-3.1,3.9c-0.4,0.1-0.8,0.2-1.2,0.2c-0.3,0-0.5,0-0.8-0.1c-2-0.3-3.4-2-3.5-3.9v0l0-3.2c0.6-0.1,1.3-0.3,1.8-0.7
		c0.2-0.1,0.4-0.3,0.6-0.4c0.3-0.2,0.5-0.5,0.8-0.7c0.2-0.1,0.2-0.3,0.2-0.5c0.2-0.2,0.4-0.5,0.5-0.7c0.1-0.1,0.2-0.3,0.3-0.4
		c0.8-1.3,1.2-2.7,1.3-4.2c0-2.5-1.2-2.8-3.3-3.3c-0.1-0.2-0.4-0.4-0.7-0.4c-0.4,0-0.7,0.3-0.8,0.7v0c0,0.4,0.4,0.7,0.8,0.7
		c0.2,0,0.3-0.1,0.5-0.2c0.7,0.1,1.4,0.3,2,0.7c0.4,0.3,0.5,0.8,0.5,1.7c-0.1,1.5-0.6,3-1.4,4.2c-0.1,0.2-0.3,0.4-0.4,0.6
		c-0.2,0-0.4,0.1-0.5,0.2c-0.9,1.4-2.8,1.8-4.2,0.9c-0.4-0.2-0.6-0.5-0.9-0.9c-0.1-0.1-0.3-0.2-0.4-0.2c0,0,0,0,0-0.1h-0.1
		c-0.1-0.2-0.3-0.4-0.4-0.5c-0.8-1.3-1.3-2.7-1.4-4.2c0-1.8,0.5-2,2.5-2.4c0.1,0.1,0.3,0.2,0.5,0.2c0.4,0,0.7-0.3,0.8-0.7
		c0-0.4-0.3-0.7-0.8-0.7h0c-0.3,0-0.6,0.2-0.7,0.4c-2,0.5-3.2,0.7-3.2,3.3c0.1,1.5,0.5,2.9,1.3,4.2c0.1,0.1,0.2,0.3,0.3,0.4
		c0,0,0,0.1,0.1,0.1h-2.4c-2.4,0-4.4,2-4.4,4.4v23.9c0,2.4,2,4.4,4.4,4.4h19.5c2.4,0,4.4-1.9,4.4-4.3v-24
		C244.1,35.8,244,35.2,243.7,34.6z M241.9,60.5c0,0.9-0.7,1.8-1.6,2c-0.2,0-0.4,0.1-0.6,0.1h-19.5c-1.2,0-2.2-1-2.2-2.2V36.5
		c0-1.2,1-2.2,2.2-2.2h4.2c0,0,0.1,0,0.1,0.1c0.5,0.3,1.2,0.6,1.8,0.7v3.2c0.1,2.5,2,4.6,4.5,4.9c0.3,0,0.5,0.1,0.8,0.1
		c0.4,0,0.8,0,1.2-0.1c2.3-0.4,4-2.4,4-4.8v-2.8c0.2,0,0.5-0.1,0.7-0.2c0.5-0.2,0.9-0.5,1.2-0.9c0,0,0,0,0.1-0.1h0.9
		c0.9,0,1.8,0.6,2.1,1.5c0.1,0.2,0.1,0.5,0.1,0.7L241.9,60.5z"/>
</g>
</svg>
